<?xml version="1.0" encoding="utf-8"?>
<!-- Generator: Adobe Illustrator 17.0.0, SVG Export Plug-In . SVG Version: 6.00 Build 0)  -->
<!DOCTYPE svg PUBLIC "-//W3C//DTD SVG 1.1//EN" "http://www.w3.org/Graphics/SVG/1.1/DTD/svg11.dtd">
<svg version="1.1" id="Layer_1" xmlns="http://www.w3.org/2000/svg" xmlns:xlink="http://www.w3.org/1999/xlink" x="0px" y="0px"
	 width="91.042px" height="55.042px" viewBox="0 0 91.042 55.042" enable-background="new 0 0 91.042 55.042" xml:space="preserve">
<g>
	<circle fill="#F5F5F5" cx="18.708" cy="15.375" r="10.667"/>
	<path fill="#F5F5F5" d="M18.875,23.375c-6.443,0-11.667,4.298-11.667,9.6v14.4h23.333v-14.4
		C30.542,27.673,25.318,23.375,18.875,23.375z"/>
</g>
<g>
	<circle fill="#F5F5F5" cx="45.542" cy="15.375" r="10.667"/>
	<path fill="#F5F5F5" d="M45.708,23.375c-6.443,0-11.667,4.298-11.667,9.6v14.4h23.333v-14.4
		C57.375,27.673,52.152,23.375,45.708,23.375z"/>
</g>
<g>
	<circle fill="#F5F5F5" cx="72.375" cy="15.375" r="10.667"/>
	<path fill="#F5F5F5" d="M72.542,23.375c-6.443,0-11.667,4.298-11.667,9.6v14.4h23.333v-14.4
		C84.208,27.673,78.985,23.375,72.542,23.375z"/>
</g>
</svg>
